<mxfile host="Electron" modified="2023-09-25T11:17:27.686Z" agent="Mozilla/5.0 (Windows NT 10.0; Win64; x64) AppleWebKit/537.36 (KHTML, like Gecko) draw.io/21.7.5 Chrome/114.0.5735.289 Electron/25.8.1 Safari/537.36" etag="EQ2iv737DzzAKeoEyo6-" version="21.7.5" type="device">
  <diagram id="0RJzMwNWL2ZwauF-mPP_" name="Страница — 1">
    <mxGraphModel dx="1036" dy="614" grid="1" gridSize="10" guides="1" tooltips="1" connect="1" arrows="1" fold="1" page="1" pageScale="1" pageWidth="827" pageHeight="1169" math="0" shadow="0">
      <root>
        <mxCell id="0" />
        <mxCell id="1" parent="0" />
        <mxCell id="oAZqkX2g14vaC2ovlLdU-5" value="&lt;i&gt;Field&lt;/i&gt;" style="swimlane;fontStyle=0;childLayout=stackLayout;horizontal=1;startSize=26;fillColor=none;horizontalStack=0;resizeParent=1;resizeParentMax=0;resizeLast=0;collapsible=1;marginBottom=0;whiteSpace=wrap;html=1;" parent="1" vertex="1">
          <mxGeometry x="344" y="40" width="130" height="100" as="geometry" />
        </mxCell>
        <mxCell id="oAZqkX2g14vaC2ovlLdU-6" value="+ value" style="text;strokeColor=none;fillColor=none;align=left;verticalAlign=top;spacingLeft=4;spacingRight=4;overflow=hidden;rotatable=0;points=[[0,0.5],[1,0.5]];portConstraint=eastwest;whiteSpace=wrap;html=1;" parent="oAZqkX2g14vaC2ovlLdU-5" vertex="1">
          <mxGeometry y="26" width="130" height="26" as="geometry" />
        </mxCell>
        <mxCell id="oAZqkX2g14vaC2ovlLdU-7" value="+ value()&lt;br&gt;+ display_info()" style="text;strokeColor=default;fillColor=none;align=left;verticalAlign=top;spacingLeft=4;spacingRight=4;overflow=hidden;rotatable=0;points=[[0,0.5],[1,0.5]];portConstraint=eastwest;whiteSpace=wrap;html=1;" parent="oAZqkX2g14vaC2ovlLdU-5" vertex="1">
          <mxGeometry y="52" width="130" height="48" as="geometry" />
        </mxCell>
        <mxCell id="-izJLKY0wmesGJYscoOY-10" value="" style="edgeStyle=orthogonalEdgeStyle;rounded=0;orthogonalLoop=1;jettySize=auto;html=1;entryX=0;entryY=0.5;entryDx=0;entryDy=0;" parent="1" source="oAZqkX2g14vaC2ovlLdU-14" target="oAZqkX2g14vaC2ovlLdU-7" edge="1">
          <mxGeometry relative="1" as="geometry">
            <mxPoint x="110" y="100" as="targetPoint" />
          </mxGeometry>
        </mxCell>
        <mxCell id="HdKNFP1M2P60kai494y6-79" value="Inheritance" style="edgeLabel;html=1;align=center;verticalAlign=middle;resizable=0;points=[];" vertex="1" connectable="0" parent="-izJLKY0wmesGJYscoOY-10">
          <mxGeometry x="0.1031" y="-1" relative="1" as="geometry">
            <mxPoint as="offset" />
          </mxGeometry>
        </mxCell>
        <mxCell id="oAZqkX2g14vaC2ovlLdU-14" value="Name" style="swimlane;fontStyle=0;childLayout=stackLayout;horizontal=1;startSize=20;fillColor=none;horizontalStack=0;resizeParent=1;resizeParentMax=0;resizeLast=0;collapsible=1;marginBottom=0;whiteSpace=wrap;html=1;" parent="1" vertex="1">
          <mxGeometry x="40" y="200" width="140" height="90" as="geometry" />
        </mxCell>
        <mxCell id="oAZqkX2g14vaC2ovlLdU-16" value="+ value" style="text;strokeColor=none;fillColor=none;align=left;verticalAlign=top;spacingLeft=4;spacingRight=4;overflow=hidden;rotatable=0;points=[[0,0.5],[1,0.5]];portConstraint=eastwest;whiteSpace=wrap;html=1;" parent="oAZqkX2g14vaC2ovlLdU-14" vertex="1">
          <mxGeometry y="20" width="140" height="22" as="geometry" />
        </mxCell>
        <mxCell id="oAZqkX2g14vaC2ovlLdU-15" value="+ display_info()&lt;br&gt;+ value()" style="text;strokeColor=default;fillColor=none;align=left;verticalAlign=top;spacingLeft=4;spacingRight=4;overflow=hidden;rotatable=0;points=[[0,0.5],[1,0.5]];portConstraint=eastwest;whiteSpace=wrap;html=1;" parent="oAZqkX2g14vaC2ovlLdU-14" vertex="1">
          <mxGeometry y="42" width="140" height="48" as="geometry" />
        </mxCell>
        <mxCell id="-izJLKY0wmesGJYscoOY-9" value="" style="edgeStyle=orthogonalEdgeStyle;rounded=0;orthogonalLoop=1;jettySize=auto;html=1;" parent="1" source="oAZqkX2g14vaC2ovlLdU-21" target="oAZqkX2g14vaC2ovlLdU-7" edge="1">
          <mxGeometry relative="1" as="geometry" />
        </mxCell>
        <mxCell id="oAZqkX2g14vaC2ovlLdU-21" value="Phone" style="swimlane;fontStyle=0;childLayout=stackLayout;horizontal=1;startSize=26;fillColor=none;horizontalStack=0;resizeParent=1;resizeParentMax=0;resizeLast=0;collapsible=1;marginBottom=0;whiteSpace=wrap;html=1;" parent="1" vertex="1">
          <mxGeometry x="220" y="200" width="140" height="110" as="geometry" />
        </mxCell>
        <mxCell id="oAZqkX2g14vaC2ovlLdU-22" value="+ value" style="text;strokeColor=none;fillColor=none;align=left;verticalAlign=top;spacingLeft=4;spacingRight=4;overflow=hidden;rotatable=0;points=[[0,0.5],[1,0.5]];portConstraint=eastwest;whiteSpace=wrap;html=1;" parent="oAZqkX2g14vaC2ovlLdU-21" vertex="1">
          <mxGeometry y="26" width="140" height="22" as="geometry" />
        </mxCell>
        <mxCell id="oAZqkX2g14vaC2ovlLdU-23" value="+ display_info()&lt;br&gt;+ value()&lt;br&gt;- is_valid_phone()" style="text;strokeColor=default;fillColor=none;align=left;verticalAlign=top;spacingLeft=4;spacingRight=4;overflow=hidden;rotatable=0;points=[[0,0.5],[1,0.5]];portConstraint=eastwest;whiteSpace=wrap;html=1;" parent="oAZqkX2g14vaC2ovlLdU-21" vertex="1">
          <mxGeometry y="48" width="140" height="62" as="geometry" />
        </mxCell>
        <mxCell id="-izJLKY0wmesGJYscoOY-8" value="" style="edgeStyle=orthogonalEdgeStyle;rounded=0;orthogonalLoop=1;jettySize=auto;html=1;" parent="1" source="oAZqkX2g14vaC2ovlLdU-26" target="oAZqkX2g14vaC2ovlLdU-7" edge="1">
          <mxGeometry relative="1" as="geometry" />
        </mxCell>
        <mxCell id="oAZqkX2g14vaC2ovlLdU-26" value="Email" style="swimlane;fontStyle=0;childLayout=stackLayout;horizontal=1;startSize=26;fillColor=none;horizontalStack=0;resizeParent=1;resizeParentMax=0;resizeLast=0;collapsible=1;marginBottom=0;whiteSpace=wrap;html=1;" parent="1" vertex="1">
          <mxGeometry x="470" y="200" width="140" height="90" as="geometry" />
        </mxCell>
        <mxCell id="oAZqkX2g14vaC2ovlLdU-27" value="+ value" style="text;strokeColor=none;fillColor=none;align=left;verticalAlign=top;spacingLeft=4;spacingRight=4;overflow=hidden;rotatable=0;points=[[0,0.5],[1,0.5]];portConstraint=eastwest;whiteSpace=wrap;html=1;" parent="oAZqkX2g14vaC2ovlLdU-26" vertex="1">
          <mxGeometry y="26" width="140" height="22" as="geometry" />
        </mxCell>
        <mxCell id="oAZqkX2g14vaC2ovlLdU-28" value="+ value()&lt;br&gt;+ display_info()" style="text;strokeColor=default;fillColor=none;align=left;verticalAlign=top;spacingLeft=4;spacingRight=4;overflow=hidden;rotatable=0;points=[[0,0.5],[1,0.5]];portConstraint=eastwest;whiteSpace=wrap;html=1;" parent="oAZqkX2g14vaC2ovlLdU-26" vertex="1">
          <mxGeometry y="48" width="140" height="42" as="geometry" />
        </mxCell>
        <mxCell id="-izJLKY0wmesGJYscoOY-11" value="" style="edgeStyle=orthogonalEdgeStyle;rounded=0;orthogonalLoop=1;jettySize=auto;html=1;" parent="1" target="oAZqkX2g14vaC2ovlLdU-7" edge="1">
          <mxGeometry relative="1" as="geometry">
            <mxPoint x="510" y="110" as="targetPoint" />
            <mxPoint x="720" y="200" as="sourcePoint" />
            <Array as="points">
              <mxPoint x="720" y="116" />
            </Array>
          </mxGeometry>
        </mxCell>
        <mxCell id="HdKNFP1M2P60kai494y6-80" value="Inheritance" style="edgeLabel;html=1;align=center;verticalAlign=middle;resizable=0;points=[];" vertex="1" connectable="0" parent="-izJLKY0wmesGJYscoOY-11">
          <mxGeometry x="0.0824" y="1" relative="1" as="geometry">
            <mxPoint as="offset" />
          </mxGeometry>
        </mxCell>
        <mxCell id="oAZqkX2g14vaC2ovlLdU-29" value="Birthday" style="swimlane;fontStyle=0;childLayout=stackLayout;horizontal=1;startSize=26;fillColor=none;horizontalStack=0;resizeParent=1;resizeParentMax=0;resizeLast=0;collapsible=1;marginBottom=0;whiteSpace=wrap;html=1;" parent="1" vertex="1">
          <mxGeometry x="660" y="200" width="140" height="110" as="geometry" />
        </mxCell>
        <mxCell id="oAZqkX2g14vaC2ovlLdU-30" value="+ value" style="text;strokeColor=none;fillColor=none;align=left;verticalAlign=top;spacingLeft=4;spacingRight=4;overflow=hidden;rotatable=0;points=[[0,0.5],[1,0.5]];portConstraint=eastwest;whiteSpace=wrap;html=1;" parent="oAZqkX2g14vaC2ovlLdU-29" vertex="1">
          <mxGeometry y="26" width="140" height="22" as="geometry" />
        </mxCell>
        <mxCell id="oAZqkX2g14vaC2ovlLdU-31" value="+ value()&lt;br&gt;+ display_info()&lt;br&gt;- Is_valid_date()" style="text;strokeColor=default;fillColor=none;align=left;verticalAlign=top;spacingLeft=4;spacingRight=4;overflow=hidden;rotatable=0;points=[[0,0.5],[1,0.5]];portConstraint=eastwest;whiteSpace=wrap;html=1;" parent="oAZqkX2g14vaC2ovlLdU-29" vertex="1">
          <mxGeometry y="48" width="140" height="62" as="geometry" />
        </mxCell>
        <mxCell id="HdKNFP1M2P60kai494y6-63" value="" style="edgeStyle=orthogonalEdgeStyle;rounded=0;orthogonalLoop=1;jettySize=auto;html=1;" edge="1" parent="1" source="HdKNFP1M2P60kai494y6-5">
          <mxGeometry relative="1" as="geometry">
            <mxPoint x="662" y="310" as="targetPoint" />
            <Array as="points">
              <mxPoint x="414" y="340" />
              <mxPoint x="662" y="340" />
            </Array>
          </mxGeometry>
        </mxCell>
        <mxCell id="HdKNFP1M2P60kai494y6-5" value="&lt;i&gt;Record&lt;/i&gt;" style="swimlane;fontStyle=0;childLayout=stackLayout;horizontal=1;startSize=26;fillColor=none;horizontalStack=0;resizeParent=1;resizeParentMax=0;resizeLast=0;collapsible=1;marginBottom=0;whiteSpace=wrap;html=1;" vertex="1" parent="1">
          <mxGeometry x="334" y="360" width="160" height="140" as="geometry" />
        </mxCell>
        <mxCell id="HdKNFP1M2P60kai494y6-6" value="+ name&lt;br&gt;+ phones&lt;br&gt;+ emails&lt;br&gt;+ birthday&lt;br&gt;_______________________&lt;br&gt;+ display_info()" style="text;strokeColor=default;fillColor=none;align=left;verticalAlign=top;spacingLeft=4;spacingRight=4;overflow=hidden;rotatable=0;points=[[0,0.5],[1,0.5]];portConstraint=eastwest;whiteSpace=wrap;html=1;" vertex="1" parent="HdKNFP1M2P60kai494y6-5">
          <mxGeometry y="26" width="160" height="114" as="geometry" />
        </mxCell>
        <mxCell id="HdKNFP1M2P60kai494y6-9" value="PersonRecord" style="swimlane;fontStyle=0;childLayout=stackLayout;horizontal=1;startSize=26;fillColor=none;horizontalStack=0;resizeParent=1;resizeParentMax=0;resizeLast=0;collapsible=1;marginBottom=0;whiteSpace=wrap;html=1;" vertex="1" parent="1">
          <mxGeometry x="650" y="360" width="140" height="52" as="geometry" />
        </mxCell>
        <mxCell id="HdKNFP1M2P60kai494y6-11" value="+ display_info()" style="text;strokeColor=none;fillColor=none;align=left;verticalAlign=top;spacingLeft=4;spacingRight=4;overflow=hidden;rotatable=0;points=[[0,0.5],[1,0.5]];portConstraint=eastwest;whiteSpace=wrap;html=1;" vertex="1" parent="HdKNFP1M2P60kai494y6-9">
          <mxGeometry y="26" width="140" height="26" as="geometry" />
        </mxCell>
        <mxCell id="HdKNFP1M2P60kai494y6-18" value="RecordManager" style="swimlane;fontStyle=0;childLayout=stackLayout;horizontal=1;startSize=26;fillColor=none;horizontalStack=0;resizeParent=1;resizeParentMax=0;resizeLast=0;collapsible=1;marginBottom=0;whiteSpace=wrap;html=1;" vertex="1" parent="1">
          <mxGeometry x="110" y="360" width="140" height="168" as="geometry" />
        </mxCell>
        <mxCell id="HdKNFP1M2P60kai494y6-19" value="+ add_phone()" style="text;strokeColor=none;fillColor=none;align=left;verticalAlign=top;spacingLeft=4;spacingRight=4;overflow=hidden;rotatable=0;points=[[0,0.5],[1,0.5]];portConstraint=eastwest;whiteSpace=wrap;html=1;" vertex="1" parent="HdKNFP1M2P60kai494y6-18">
          <mxGeometry y="26" width="140" height="26" as="geometry" />
        </mxCell>
        <mxCell id="HdKNFP1M2P60kai494y6-20" value="+ add_email()" style="text;strokeColor=none;fillColor=none;align=left;verticalAlign=top;spacingLeft=4;spacingRight=4;overflow=hidden;rotatable=0;points=[[0,0.5],[1,0.5]];portConstraint=eastwest;whiteSpace=wrap;html=1;" vertex="1" parent="HdKNFP1M2P60kai494y6-18">
          <mxGeometry y="52" width="140" height="26" as="geometry" />
        </mxCell>
        <mxCell id="HdKNFP1M2P60kai494y6-21" value="+ find_phone()&lt;br&gt;+ delate_phone()&lt;br&gt;+ edit_phone()&lt;br&gt;+ days_until_birthday()" style="text;strokeColor=none;fillColor=none;align=left;verticalAlign=top;spacingLeft=4;spacingRight=4;overflow=hidden;rotatable=0;points=[[0,0.5],[1,0.5]];portConstraint=eastwest;whiteSpace=wrap;html=1;" vertex="1" parent="HdKNFP1M2P60kai494y6-18">
          <mxGeometry y="78" width="140" height="90" as="geometry" />
        </mxCell>
        <mxCell id="HdKNFP1M2P60kai494y6-24" value="" style="edgeStyle=orthogonalEdgeStyle;rounded=0;orthogonalLoop=1;jettySize=auto;html=1;" edge="1" parent="1" source="HdKNFP1M2P60kai494y6-21" target="HdKNFP1M2P60kai494y6-6">
          <mxGeometry relative="1" as="geometry">
            <Array as="points">
              <mxPoint x="310" y="443" />
              <mxPoint x="310" y="443" />
            </Array>
          </mxGeometry>
        </mxCell>
        <mxCell id="HdKNFP1M2P60kai494y6-82" value="Association" style="edgeLabel;html=1;align=center;verticalAlign=middle;resizable=0;points=[];" vertex="1" connectable="0" parent="HdKNFP1M2P60kai494y6-24">
          <mxGeometry x="-0.2815" y="3" relative="1" as="geometry">
            <mxPoint as="offset" />
          </mxGeometry>
        </mxCell>
        <mxCell id="HdKNFP1M2P60kai494y6-25" value="A" style="edgeStyle=orthogonalEdgeStyle;rounded=0;orthogonalLoop=1;jettySize=auto;html=1;" edge="1" parent="1" source="HdKNFP1M2P60kai494y6-11" target="HdKNFP1M2P60kai494y6-6">
          <mxGeometry relative="1" as="geometry">
            <Array as="points">
              <mxPoint x="570" y="399" />
              <mxPoint x="570" y="399" />
            </Array>
          </mxGeometry>
        </mxCell>
        <mxCell id="HdKNFP1M2P60kai494y6-83" value="Association" style="edgeLabel;html=1;align=center;verticalAlign=middle;resizable=0;points=[];" vertex="1" connectable="0" parent="HdKNFP1M2P60kai494y6-25">
          <mxGeometry x="-0.0308" y="1" relative="1" as="geometry">
            <mxPoint as="offset" />
          </mxGeometry>
        </mxCell>
        <mxCell id="HdKNFP1M2P60kai494y6-41" value="AdressBook" style="swimlane;fontStyle=0;childLayout=stackLayout;horizontal=1;startSize=26;fillColor=none;horizontalStack=0;resizeParent=1;resizeParentMax=0;resizeLast=0;collapsible=1;marginBottom=0;whiteSpace=wrap;html=1;" vertex="1" parent="1">
          <mxGeometry x="344" y="570" width="140" height="104" as="geometry" />
        </mxCell>
        <mxCell id="HdKNFP1M2P60kai494y6-42" value="+ add_record()" style="text;strokeColor=none;fillColor=none;align=left;verticalAlign=top;spacingLeft=4;spacingRight=4;overflow=hidden;rotatable=0;points=[[0,0.5],[1,0.5]];portConstraint=eastwest;whiteSpace=wrap;html=1;" vertex="1" parent="HdKNFP1M2P60kai494y6-41">
          <mxGeometry y="26" width="140" height="26" as="geometry" />
        </mxCell>
        <mxCell id="HdKNFP1M2P60kai494y6-47" value="" style="edgeStyle=orthogonalEdgeStyle;rounded=0;orthogonalLoop=1;jettySize=auto;html=1;" edge="1" parent="HdKNFP1M2P60kai494y6-41">
          <mxGeometry relative="1" as="geometry">
            <mxPoint x="66" as="targetPoint" />
            <mxPoint x="66" y="-71" as="sourcePoint" />
          </mxGeometry>
        </mxCell>
        <mxCell id="HdKNFP1M2P60kai494y6-81" value="Association " style="edgeLabel;html=1;align=center;verticalAlign=middle;resizable=0;points=[];" vertex="1" connectable="0" parent="HdKNFP1M2P60kai494y6-47">
          <mxGeometry x="0.0479" y="-3" relative="1" as="geometry">
            <mxPoint as="offset" />
          </mxGeometry>
        </mxCell>
        <mxCell id="HdKNFP1M2P60kai494y6-43" value="+ find_record()" style="text;strokeColor=none;fillColor=none;align=left;verticalAlign=top;spacingLeft=4;spacingRight=4;overflow=hidden;rotatable=0;points=[[0,0.5],[1,0.5]];portConstraint=eastwest;whiteSpace=wrap;html=1;" vertex="1" parent="HdKNFP1M2P60kai494y6-41">
          <mxGeometry y="52" width="140" height="26" as="geometry" />
        </mxCell>
        <mxCell id="HdKNFP1M2P60kai494y6-44" value="+ iterator()" style="text;strokeColor=none;fillColor=none;align=left;verticalAlign=top;spacingLeft=4;spacingRight=4;overflow=hidden;rotatable=0;points=[[0,0.5],[1,0.5]];portConstraint=eastwest;whiteSpace=wrap;html=1;" vertex="1" parent="HdKNFP1M2P60kai494y6-41">
          <mxGeometry y="78" width="140" height="26" as="geometry" />
        </mxCell>
        <mxCell id="HdKNFP1M2P60kai494y6-52" value="FileManagerAndSearch" style="swimlane;fontStyle=0;childLayout=stackLayout;horizontal=1;startSize=26;fillColor=none;horizontalStack=0;resizeParent=1;resizeParentMax=0;resizeLast=0;collapsible=1;marginBottom=0;whiteSpace=wrap;html=1;" vertex="1" parent="1">
          <mxGeometry x="90" y="567" width="170" height="104" as="geometry" />
        </mxCell>
        <mxCell id="HdKNFP1M2P60kai494y6-53" value="+ save_to_file()" style="text;strokeColor=none;fillColor=none;align=left;verticalAlign=top;spacingLeft=4;spacingRight=4;overflow=hidden;rotatable=0;points=[[0,0.5],[1,0.5]];portConstraint=eastwest;whiteSpace=wrap;html=1;" vertex="1" parent="HdKNFP1M2P60kai494y6-52">
          <mxGeometry y="26" width="170" height="26" as="geometry" />
        </mxCell>
        <mxCell id="HdKNFP1M2P60kai494y6-54" value="+ load_from_file()" style="text;strokeColor=none;fillColor=none;align=left;verticalAlign=top;spacingLeft=4;spacingRight=4;overflow=hidden;rotatable=0;points=[[0,0.5],[1,0.5]];portConstraint=eastwest;whiteSpace=wrap;html=1;" vertex="1" parent="HdKNFP1M2P60kai494y6-52">
          <mxGeometry y="52" width="170" height="26" as="geometry" />
        </mxCell>
        <mxCell id="HdKNFP1M2P60kai494y6-55" value="+ search()" style="text;strokeColor=none;fillColor=none;align=left;verticalAlign=top;spacingLeft=4;spacingRight=4;overflow=hidden;rotatable=0;points=[[0,0.5],[1,0.5]];portConstraint=eastwest;whiteSpace=wrap;html=1;" vertex="1" parent="HdKNFP1M2P60kai494y6-52">
          <mxGeometry y="78" width="170" height="26" as="geometry" />
        </mxCell>
        <mxCell id="HdKNFP1M2P60kai494y6-58" value="" style="edgeStyle=orthogonalEdgeStyle;rounded=0;orthogonalLoop=1;jettySize=auto;html=1;exitX=0.986;exitY=-0.031;exitDx=0;exitDy=0;exitPerimeter=0;" edge="1" parent="1" source="HdKNFP1M2P60kai494y6-54">
          <mxGeometry relative="1" as="geometry">
            <mxPoint x="290" y="618.5" as="sourcePoint" />
            <mxPoint x="344" y="618.5" as="targetPoint" />
            <Array as="points">
              <mxPoint x="290" y="619" />
              <mxPoint x="290" y="619" />
            </Array>
          </mxGeometry>
        </mxCell>
        <mxCell id="HdKNFP1M2P60kai494y6-84" value="Aggregation" style="edgeLabel;html=1;align=center;verticalAlign=middle;resizable=0;points=[];" vertex="1" connectable="0" parent="HdKNFP1M2P60kai494y6-58">
          <mxGeometry x="-0.1032" y="2" relative="1" as="geometry">
            <mxPoint as="offset" />
          </mxGeometry>
        </mxCell>
        <mxCell id="HdKNFP1M2P60kai494y6-67" style="edgeStyle=orthogonalEdgeStyle;rounded=0;orthogonalLoop=1;jettySize=auto;html=1;" edge="1" parent="1">
          <mxGeometry relative="1" as="geometry">
            <mxPoint x="120" y="300" as="targetPoint" />
            <mxPoint x="420" y="340" as="sourcePoint" />
          </mxGeometry>
        </mxCell>
        <mxCell id="HdKNFP1M2P60kai494y6-70" value="" style="edgeStyle=orthogonalEdgeStyle;rounded=0;orthogonalLoop=1;jettySize=auto;html=1;" edge="1" parent="1" target="oAZqkX2g14vaC2ovlLdU-23">
          <mxGeometry relative="1" as="geometry">
            <mxPoint x="410" y="330" as="sourcePoint" />
            <Array as="points">
              <mxPoint x="410" y="270" />
            </Array>
          </mxGeometry>
        </mxCell>
        <mxCell id="HdKNFP1M2P60kai494y6-71" value="Composition" style="edgeLabel;html=1;align=center;verticalAlign=middle;resizable=0;points=[];" vertex="1" connectable="0" parent="HdKNFP1M2P60kai494y6-70">
          <mxGeometry x="-1" y="4" relative="1" as="geometry">
            <mxPoint x="1" y="2" as="offset" />
          </mxGeometry>
        </mxCell>
        <mxCell id="HdKNFP1M2P60kai494y6-72" value="" style="edgeStyle=orthogonalEdgeStyle;rounded=0;orthogonalLoop=1;jettySize=auto;html=1;" edge="1" parent="1" target="oAZqkX2g14vaC2ovlLdU-28">
          <mxGeometry relative="1" as="geometry">
            <mxPoint x="410" y="320" as="sourcePoint" />
          </mxGeometry>
        </mxCell>
      </root>
    </mxGraphModel>
  </diagram>
</mxfile>
